#!OML:ASF H:\Terrain\Patient Classification 1\Animal1\Tuesday\Animal1.ASF
:FULLY-SPECIFIED
:DEGREES
2016
root 12.6652 16.4964 -12.7436 4.40139 -18.1779 0.722959
lowerback -6.2102 0.49947 2.29805
upperback 0.199967 0.504071 -0.217565
thorax 3.71256 0.295574 -1.46843
lowerneck 8.61288 -9.50837 -13.0325
upperneck 34.9004 -9.91268 -14.6636
head 10.0185 -7.65997 -3.70154
rclavicle 4.51987e-014 5.96354e-016
rhumerus -100.144 56.2972 -116.502
rradius 95.8703
rwrist -36.5761
rhand -10.4779 13.5361
rfingers 7.12502
rthumb 15.5234 -15.8608
lclavicle 4.51987e-014 5.96354e-016
lhumerus 67.1238 48.4152 58.7653
lradius 144.812
lwrist 54.4352
lhand 39.3717 25.3983
lfingers 7.12502
lthumb 61.8723 37.0503
rfemur -11.1106 25.2672 13.7825
rtibia 17.5791
rfoot -3.35945 -27.4231
rtoes -9.58029
lfemur 2.05712 -5.696 -13.8908
ltibia 2.42977
lfoot -9.80025 11.1175
ltoes -5.64011
2017
root 12.6704 16.4945 -12.7466 4.33223 -18.595 0.849574
lowerback -6.12899 0.425457 2.12663
upperback 0.179952 0.420121 -0.217096
thorax 3.64111 0.249707 -1.37995
lowerneck 8.56434 -9.39838 -12.9597
upperneck 34.9819 -9.76078 -14.6689
head 10.0538 -7.59464 -3.71599
rclavicle 3.61477e-014 -7.95139e-016
rhumerus -100.442 56.2885 -116.687
rradius 95.9395
rwrist -36.4729
rhand -10.8279 13.5559
rfingers 7.12502
rthumb 15.1862 -15.8668
lclavicle 3.61477e-014 -7.95139e-016
lhumerus 66.9096 48.326 58.5844
lradius 145.095
lwrist 54.6057
lhand 40.139 26.5467
lfingers 7.12502
lthumb 62.5103 37.3903
rfemur -11.3083 25.4227 13.5686
rtibia 17.724
rfoot -3.19762 -27.2843
rtoes -10.1478
lfemur 2.58136 -5.30089 -13.9589
ltibia 1.66506
lfoot -9.76959 10.9104
ltoes -2.38438
2018
root 12.674 16.4985 -12.7442 4.34251 -18.9839 0.91597
lowerback -6.15655 0.360734 1.99802
upperback 0.192099 0.341474 -0.190969
thorax 3.66498 0.208333 -1.28782
lowerneck 8.20435 -9.17299 -13.2861
upperneck 35.2514 -9.54456 -13.9742
head 10.2989 -7.50285 -3.46085
rclavicle -7.05561e-014 7.95139e-016
rhumerus -100.414 56.269 -116.616
rradius 95.9229
rwrist -36.38
rhand -10.9702 13.9429
rfingers 7.12502
rthumb 15.0492 -15.4901
lclavicle -7.05561e-014 7.95139e-016
lhumerus 66.8971 48.3326 58.6036
lradius 145.301
lwrist 54.8486
lhand 41.1517 27.4972
lfingers 7.12502
lthumb 63.3428 37.2123
rfemur -11.5442 25.6496 13.3978
rtibia 17.876
rfoot -3.481 -27.1427
rtoes -9.86142
lfemur 2.98493 -4.92482 -13.9735
ltibia 1.04179
lfoot -9.65205 10.7384
ltoes -0.644652
2019
root 12.6783 16.5012 -12.7377 4.40744 -19.4235 0.807279
lowerback -6.29267 0.345216 2.08608
upperback 0.266749 0.308141 -0.13051
thorax 3.81786 0.195017 -1.27729
lowerneck 7.97057 -9.07868 -13.5925
upperneck 35.4303 -9.49407 -13.4732
head 10.4703 -7.49095 -3.26867
rclavicle 1.53934e-014 -8.54774e-015
rhumerus -100.087 56.3052 -116.333
rradius 95.8452
rwrist -36.4821
rhand -10.7422 14.407
rfingers 7.12502
rthumb 15.2688 -15.0094
lclavicle 1.53934e-014 -8.54774e-015
lhumerus 66.8927 48.2898 58.6793
lradius 145.511
lwrist 54.8673
lhand 41.5809 27.4174
lfingers 7.12502
lthumb 63.692 36.6318
rfemur -11.8072 25.7767 13.4185
rtibia 18.0828
rfoot -3.79873 -26.9039
rtoes -9.82071
lfemur 3.62172 -4.48235 -13.7496
ltibia -1.59028e-014
lfoot -8.29769 10.6823
ltoes -2.66974
2020
root 12.685 16.495 -12.7344 4.29661 -19.8847 0.860245
lowerback -6.24027 0.354874 2.07529
upperback 0.348183 0.323008 -0.148037
thorax 3.8734 0.20364 -1.28793
lowerneck 8.05547 -9.17255 -13.3057
upperneck 35.279 -9.58746 -13.8022
head 10.3458 -7.52057 -3.41173
rclavicle 1.10077e-014 -7.7526e-015
rhumerus -99.7535 56.191 -116.015
rradius 95.8311
rwrist -36.4793
rhand -10.5608 14.2721
rfingers 7.12502
rthumb 15.4435 -15.1309
lclavicle 1.10077e-014 -7.7526e-015
lhumerus 66.8733 48.1725 58.6007
lradius 145.744
lwrist 54.7805
lhand 41.3027 27.3973
lfingers 7.12502
lthumb 63.4659 36.9378
rfemur -11.9436 25.8561 13.3361
rtibia 18.2988
rfoot -3.3385 -26.5561
rtoes -11.9065
lfemur 3.861 -4.05441 -13.8831
ltibia 7.95139e-015
lfoot -8.26682 10.7823
ltoes -2.74154
2021
root 12.6902 16.4902 -12.7305 4.1337 -20.2174 1.09243
lowerback -6.16455 0.307601 1.86333
upperback 0.401598 0.279567 -0.212312
thorax 3.88358 0.178976 -1.23955
lowerneck 8.27263 -9.28 -12.8642
upperneck 34.9186 -9.70673 -14.278
head 10.0896 -7.54076 -3.60056
rclavicle 9.97651e-015 5.1684e-015
rhumerus -99.6306 56.021 -115.884
rradius 95.8636
rwrist -36.4769
rhand -10.3646 13.5907
rfingers 7.12502
rthumb 15.6325 -15.7977
lclavicle 9.97651e-015 5.1684e-015
lhumerus 66.9202 48.1029 58.3272
lradius 145.87
lwrist 54.7819
lhand 40.9142 27.4559
lfingers 7.12502
lthumb 63.1486 37.4422
rfemur -12.0095 25.9879 13.0707
rtibia 18.4492
rfoot -3.08403 -26.3347
rtoes -13.1124
lfemur 4.05976 -3.76458 -14.1753
ltibia 4.77083e-015
lfoot -8.33759 10.7741
ltoes -1.56432
2022
root 12.6941 16.4909 -12.7269 4.07742 -20.5541 1.39734
lowerback -6.19215 0.216008 1.52844
upperback 0.377923 0.184752 -0.283693
thorax 3.87006 0.125481 -1.13409
lowerneck 8.29188 -9.27888 -12.7899
upperneck 34.9156 -9.71965 -14.3129
head 10.0748 -7.54579 -3.62258
rclavicle -6.09275e-014 -3.57812e-015
rhumerus -99.8311 56.059 -116.121
rradius 95.8903
rwrist -36.6789
rhand -9.89086 12.7658
rfingers 7.12502
rthumb 16.0887 -16.5863
lclavicle -6.09275e-014 -3.57812e-015
lhumerus 66.8615 48.0835 57.9808
lradius 145.963
lwrist 54.9447
lhand 40.5027 27.0193
lfingers 7.12502
lthumb 62.8106 37.466
rfemur -12.1969 26.0317 12.659
rtibia 18.5046
rfoot -2.97154 -26.1445
rtoes -13.2635
lfemur 4.09248 -3.46189 -14.5234
ltibia 1.59028e-015
lfoot -8.50025 10.7081
ltoes -0.821375
2023
root 12.6981 16.4921 -12.7281 4.1897 -20.9734 1.40491
lowerback -6.22125 0.166386 1.4642
upperback 0.287062 0.122449 -0.261678
thorax 3.7901 0.0917683 -1.08113
lowerneck 8.43944 -9.23083 -12.7126
upperneck 34.8983 -9.69464 -14.3394
head 10.0328 -7.52921 -3.63065
rclavicle 1.47846e-014 -6.36111e-015
rhumerus -100.191 56.1552 -116.507
rradius 95.8922
rwrist -36.7551
rhand -9.78627 12.4591
rfingers 7.12502
rthumb 16.1895 -16.8848
lclavicle 1.47846e-014 -6.36111e-015
lhumerus 66.6149 48.0774 57.6944
lradius 146.2
lwrist 55.153
lhand 40.1979 26.7169
lfingers 7.12502
lthumb 62.5591 37.4968
rfemur -12.4885 26.1264 12.5178
rtibia 18.4994
rfoot -2.91903 -25.8509
rtoes -13.1328
lfemur 4.04709 -3.05134 -14.562
ltibia -7.95139e-015
lfoot -8.67645 10.7111
ltoes -1.21413
2024
root 12.7025 16.4923 -12.7272 4.4015 -21.3473 1.05511
lowerback -6.3047 0.164385 1.77014
upperback 0.270676 0.090678 -0.136476
thorax 3.81963 0.0808823 -1.12663
lowerneck 8.62166 -9.20421 -12.6101
upperneck 34.7022 -9.71304 -14.3754
head 9.91006 -7.51542 -3.62918
rclavicle -5.71506e-016 -1.07344e-014
rhumerus -100.229 56.0591 -116.383
rradius 96.0114
rwrist -36.5703
rhand -9.71312 12.3627
rfingers 7.12502
rthumb 16.2599 -16.9755
lclavicle -5.71506e-016 -1.07344e-014
lhumerus 66.5001 47.9327 57.7686
lradius 146.476
lwrist 55.144
lhand 40.7986 26.8008
lfingers 7.12502
lthumb 63.0538 36.9177
rfemur -12.7059 26.3551 12.7606
rtibia 18.4632
rfoot -3.18671 -25.6308
rtoes -12.3862
lfemur 4.04533 -2.66331 -14.2225
ltibia -9.54166e-015
lfoot -8.99906 10.6914
ltoes -0.764454
2025
root 12.7076 16.4913 -12.7183 4.4187 -21.7046 0.940635
lowerback -6.40058 0.164086 1.87728
upperback 0.388176 0.0768862 -0.0788506
thorax 3.99516 0.0781127 -1.12852
lowerneck 8.33414 -9.18113 -12.8752
upperneck 34.8885 -9.70169 -14.0553
head 10.0787 -7.53313 -3.51501
rclavicle 1.59525e-014 -1.98785e-015
rhumerus -99.8453 55.843 -115.719
rradius 96.2521
rwrist -36.3383
rhand -9.22687 12.3322
rfingers 7.12502
rthumb 16.728 -16.9671
lclavicle 1.59525e-014 -1.98785e-015
lhumerus 66.592 47.6202 58.0407
lradius 146.706
lwrist 55.0169
lhand 41.6888 26.9927
lfingers 7.12502
lthumb 63.7795 36.0791
rfemur -12.7131 26.4484 12.8313
rtibia 18.379
rfoot -3.15426 -25.3864
rtoes -12.2151
lfemur 4.19562 -2.31848 -14.1616
ltibia -1.43125e-014
lfoot -9.24336 10.7107
ltoes -1.38675
